<svg width="593" height="718" viewBox="0 0 593 718" fill="none" xmlns="http://www.w3.org/2000/svg">
<path d="M572.348 -71.1763C471.467 -114.14 359.893 -115.246 258.18 -74.2928C156.466 -33.3395 76.7876 44.7715 33.8237 145.652C-9.14022 246.533 -10.2461 358.107 30.7072 459.82C71.6604 561.534 149.772 641.21 250.652 684.176C351.532 727.142 463.107 728.246 564.82 687.293C666.534 646.34 746.212 568.229 789.176 467.348C832.14 366.467 833.246 254.893 792.293 153.18C751.34 51.4665 673.228 -28.2103 572.348 -71.1763ZM401.917 282.701C460.972 258.923 528.36 287.623 552.137 346.677C571.827 395.581 555.508 450.176 515.785 481.008C512.932 483.223 511.845 487.03 513.195 490.381L521.271 510.441C526.432 523.257 521.023 538.249 508.464 544.006C495.054 550.152 479.389 543.804 473.943 530.279L465.594 509.542C464.248 506.199 460.84 504.201 457.257 504.58C407.471 509.864 358.084 482.085 338.21 433.584C332.906 420.638 338.639 405.425 351.463 399.83C364.77 394.022 380.154 400.378 385.54 413.755C399.316 447.97 439.445 463.844 473.188 447.436C501.672 433.587 515.854 400.285 506.1 370.152C494.544 334.454 455.296 316.524 421.082 330.3C362.028 354.077 294.64 325.377 270.863 266.323C251.173 217.419 267.492 162.824 307.215 131.992C310.068 129.777 311.155 125.97 309.805 122.619L301.729 102.559C296.568 89.7429 301.977 74.7509 314.536 68.9943C327.945 62.8483 343.611 69.196 349.057 82.7216L357.406 103.458C358.752 106.801 362.16 108.799 365.743 108.42C415.529 103.137 464.916 130.915 484.79 179.416C490.094 192.362 484.361 207.575 471.537 213.17C458.23 218.978 442.846 212.622 437.46 199.245C423.684 165.031 383.555 149.157 349.812 165.564C321.328 179.413 307.146 212.715 316.9 242.848C328.456 278.547 367.704 296.476 401.917 282.701Z" fill="#3E9FE3"/>
</svg>
